<svg xmlns="http://www.w3.org/2000/svg" xmlns:xlink="http://www.w3.org/1999/xlink" width="513.26" height="141.854" viewBox="0 0 513.26 141.854 fill="black"">
  <defs>
    <linearGradient id="linear-gradient" x1="-0.014" y1="0.504" x2="0.984" y2="0.504" gradientUnits="objectBoundingBox">
      <stop offset="0.09" stop-color="#3a86ff"/>
      <stop offset="0.29" stop-color="#8338ec"/>
      <stop offset="0.49" stop-color="#ff016e"/>
      <stop offset="0.7" stop-color="#fb560a"/>
      <stop offset="0.91" stop-color="#ffbe0a"/>
    </linearGradient>
  </defs>
  <g id="Craddock_HorizontalLogo_RGB" transform="translate(-47.741 -53.341)">
    <path id="Path_1" data-name="Path 1" d="M205.535,114.644a13.819,13.819,0,0,0-13.819-13.8h-19.9v42.194h7.5v-14.47h9.55l8.393,14.47h8.682l-9-15.584a13.92,13.92,0,0,0,8.6-12.806Zm-26.219-6.338H191.7a6.309,6.309,0,0,1,0,12.618H179.315Z" transform="translate(55.462 21.232)" fill="#fff"/>
    <path id="Path_2" data-name="Path 2" d="M257.288,100.84h-21.2v42.194h21.14a21.068,21.068,0,0,0,0-42.122Zm-13.674,7.524h13.515a13.544,13.544,0,1,1,0,27.073H243.614Z" transform="translate(84.19 21.232)" fill="#fff"/>
    <path id="Path_3" data-name="Path 3" d="M292.378,100.84H271.31v42.194h21.01a21.068,21.068,0,0,0,0-42.122Zm-13.544,7.524h13.385a13.544,13.544,0,1,1,0,27.073H278.834Z" transform="translate(99.933 21.232)" fill="#fff"/>
    <path id="Path_4" data-name="Path 4" d="M327.385,100.84A21.068,21.068,0,1,0,348.5,121.908a21.068,21.068,0,0,0-21.112-21.068Zm0,34.641a13.587,13.587,0,1,1,12.136-6.659A13.587,13.587,0,0,1,327.385,135.481Z" transform="translate(115.6 21.232)" fill="#fff"/>
    <path id="Path_5" data-name="Path 5" d="M372.137,131.472h0a13.963,13.963,0,0,1-1.823,1.534,13.549,13.549,0,1,1,1.722-20.764l2.286,2.243,5.3-5.281-2.257-2.33a20.5,20.5,0,0,0-2.142-1.852,21.155,21.155,0,0,0-20.432-2.735c-.333.145-.666.275-1,.434a21.068,21.068,0,0,0,4.384,39.807,20.722,20.722,0,0,0,4.341.449,20.938,20.938,0,0,0,12.748-4.269,19.85,19.85,0,0,0,2.185-1.91l2.286-2.272-5.354-5.368Z" transform="translate(131.274 21.218)" fill="#fff"/>
    <path id="Path_6" data-name="Path 6" d="M169.54,131.472h0a13.228,13.228,0,0,1-1.838,1.534,13.544,13.544,0,1,1,0-22.24,13.373,13.373,0,0,1,1.794,1.447l2.286,2.243,5.3-5.282-2.315-2.3a23.976,23.976,0,0,0-2.142-1.852,21.155,21.155,0,0,0-20.431-2.735l-1,.434a21.038,21.038,0,0,0,4.428,39.749,20.621,20.621,0,0,0,4.341.449,20.938,20.938,0,0,0,12.748-4.269,22.931,22.931,0,0,0,2.185-1.91l2.286-2.272-5.354-5.368Z" transform="translate(40.74 21.218)" fill="#fff"/>
    <path id="Path_7" data-name="Path 7" d="M389.443,120.389,409.05,100.84H398.4l-15.729,15.613V100.84H375.19v42.122h7.481v-15.8l1.36-1.36,17.219,17.161h10.708Z" transform="translate(146.367 21.232)" fill="#fff"/>
    <path id="Path_8" data-name="Path 8" d="M219.72,100.84l-19.65,42.194h8.306l5.31-11.417.9-1.9c3.545-.13,11.576,0,17.147,3.458l4.587,9.854h8.306l-19.665-42.122Zm7.423,22.472a45.683,45.683,0,0,0-9.058-1.158l4.254-9.13Z" transform="translate(68.09 21.232)" fill="#fff"/>
    <path id="Path_9" data-name="Path 9" d="M271.31,155.722h1.635v-6.28h6.5v-1.65h-6.5v-4.7h7.51v-1.65H271.31Z" transform="translate(99.933 39.379)" fill="#fff"/>
    <rect id="Rectangle_2" data-name="Rectangle 2" width="1.65" height="14.282" transform="translate(385.265 180.819)" fill="#fff"/>
    <path id="Path_10" data-name="Path 10" d="M296.1,152.553l-8.335-11.113H286.45v14.282h1.65v-11.1l8.32,11.1h1.331V141.44H296.1Z" transform="translate(106.701 39.379)" fill="#fff"/>
    <rect id="Rectangle_3" data-name="Rectangle 3" width="1.65" height="14.282" transform="translate(410.688 180.819)" fill="#fff"/>
    <path id="Path_11" data-name="Path 11" d="M310.606,148.462l-1.809-.724-.1-.1h-.145a12.311,12.311,0,0,1-1.867-.883,1.939,1.939,0,0,1-1.056-1.693,1.693,1.693,0,0,1,.217-.839,1.634,1.634,0,0,1,.55-.622,3.514,3.514,0,0,1,.883-.405,4.123,4.123,0,0,1,2.59.145,5.179,5.179,0,0,1,1.447.854l.449.362,1.129-1.259-.492-.405a7.046,7.046,0,0,0-1.968-1.1,6.41,6.41,0,0,0-2.156-.391,4.688,4.688,0,0,0-3.082,1,3.386,3.386,0,0,0-1.244,2.662v.492a3.661,3.661,0,0,0,1.91,2.662,17.726,17.726,0,0,0,2.228,1.027,5.854,5.854,0,0,0,.579.231l.55.217.492.217.449.217.391.232.289.217.275.318a1.012,1.012,0,0,1,.145.232.552.552,0,0,0,.116.391,2,2,0,0,1-.188,1.346,1.838,1.838,0,0,1-.608.68,4.081,4.081,0,0,1-.984.449,5.08,5.08,0,0,1-2.59,0,3.878,3.878,0,0,1-1.259-.55,3.6,3.6,0,0,1-.969-.9l-.434-.579-1.2,1.244.347.434a6.106,6.106,0,0,0,2.344,1.65,6.859,6.859,0,0,0,2.634.535,6.253,6.253,0,0,0,1.924-.275,4.534,4.534,0,0,0,1.447-.81,3.632,3.632,0,0,0,.955-1.244,3.716,3.716,0,0,0,.333-1.548,3.459,3.459,0,0,0-.434-1.751A4.471,4.471,0,0,0,310.606,148.462Z" transform="translate(114.161 39.36)" fill="#fff"/>
    <path id="Path_12" data-name="Path 12" d="M322.655,148.125H315.29V141.44h-1.65v14.282h1.65v-5.947h7.365v5.947h1.65V141.44h-1.65Z" transform="translate(118.854 39.379)" fill="#fff"/>
    <rect id="Rectangle_4" data-name="Rectangle 4" width="1.65" height="14.282" transform="translate(449.395 180.819)" fill="#fff"/>
    <path id="Path_13" data-name="Path 13" d="M340.411,152.553l-8.335-11.113H330.76v14.282h1.65v-11.1l8.32,11.1h1.331V141.44h-1.65Z" transform="translate(126.507 39.379)" fill="#fff"/>
    <path id="Path_14" data-name="Path 14" d="M345.55,144.57a4.8,4.8,0,0,1,1.679-1.114,5.9,5.9,0,0,1,2.171-.405,5.427,5.427,0,0,1,4.023,1.519l.434.42,1.172-1.172-.449-.434a7.235,7.235,0,0,0-5.18-1.982,7.511,7.511,0,0,0-2.807.521,6.57,6.57,0,0,0-2.214,1.447,6.7,6.7,0,0,0-1.447,2.3,8.3,8.3,0,0,0,0,5.788,6.352,6.352,0,0,0,3.661,3.762,7.235,7.235,0,0,0,2.807.535,9.42,9.42,0,0,0,3-.463,6.773,6.773,0,0,0,2.431-1.447l.2-.188v-5.484h-6.584v1.65h4.949V152.9a6.352,6.352,0,0,1-3.979,1.172,5.629,5.629,0,0,1-2.171-.42,4.98,4.98,0,0,1-1.679-1.1,5.282,5.282,0,0,1-1.085-1.736,6.887,6.887,0,0,1,0-4.572,5.064,5.064,0,0,1,1.071-1.678Z" transform="translate(131.714 39.361)" fill="#fff"/>
    <path id="Path_15" data-name="Path 15" d="M371.433,152.084a5.791,5.791,0,0,1-1.794,1.519,4.963,4.963,0,0,1-2.344.535,6.567,6.567,0,0,1-1.707-.232,4.745,4.745,0,0,1-1.447-.68A4.528,4.528,0,0,1,363,152.142a4.733,4.733,0,0,1-.752-1.447,6.707,6.707,0,0,1-.275-1.982,7.7,7.7,0,0,1,.159-1.548,6.413,6.413,0,0,1,.463-1.346,4.863,4.863,0,0,1,.752-1.114,4.343,4.343,0,0,1,1.013-.854,4.934,4.934,0,0,1,1.317-.55,6.454,6.454,0,0,1,1.621-.2,5.238,5.238,0,0,1,2.243.506,5.368,5.368,0,0,1,1.9,1.548l.391.477,1.3-1.042-.376-.477a7.483,7.483,0,0,0-1.65-1.534,7.028,7.028,0,0,0-1.852-.9,7.843,7.843,0,0,0-4.008,0,6.67,6.67,0,0,0-1.765.738,6.093,6.093,0,0,0-1.375,1.143,6.552,6.552,0,0,0-1,1.447,8.567,8.567,0,0,0-.781,3.632,8.455,8.455,0,0,0,.347,2.474,6.641,6.641,0,0,0,1.013,2.026,6.275,6.275,0,0,0,1.519,1.447,6.885,6.885,0,0,0,1.924.9,8.263,8.263,0,0,0,2.171.289,6.554,6.554,0,0,0,3.125-.709,7.655,7.655,0,0,0,2.33-1.968l.391-.492-1.331-1.013Z" transform="translate(139.72 39.371)" fill="#fff"/>
    <path id="Path_16" data-name="Path 16" d="M383.879,143.375a6.872,6.872,0,0,0-2.243-1.447,7.423,7.423,0,0,0-5.571,0,6.6,6.6,0,0,0-2.257,1.548,7.236,7.236,0,0,0-1.447,2.3,7.449,7.449,0,0,0-.521,2.764,7.613,7.613,0,0,0,.521,2.807,7.239,7.239,0,0,0,1.447,2.286,6.642,6.642,0,0,0,2.257,1.563,7.235,7.235,0,0,0,2.894.564,7.091,7.091,0,0,0,2.706-.521,6.916,6.916,0,0,0,2.243-1.447,6.551,6.551,0,0,0,1.447-2.3,8.088,8.088,0,0,0,0-5.788A6.627,6.627,0,0,0,383.879,143.375Zm-6.757,10.476a4.687,4.687,0,0,1-1.447-.767,6.352,6.352,0,0,1-1.129-1.2,6,6,0,0,1-.723-1.534,6.532,6.532,0,0,1-.246-1.78,5.934,5.934,0,0,1,.391-2.156,5.617,5.617,0,0,1,1.1-1.765,4.919,4.919,0,0,1,1.693-1.172,5.6,5.6,0,0,1,2.214-.434,5.426,5.426,0,0,1,3.777,1.447,5.108,5.108,0,0,1,1.143,1.751,5.892,5.892,0,0,1,.434,2.272,6.033,6.033,0,0,1-.434,2.3,4.977,4.977,0,0,1-1.143,1.751,5.545,5.545,0,0,1-1.708,1.114A5.788,5.788,0,0,1,377.122,153.851Z" transform="translate(144.869 39.355)"/>
    <path id="Path_17" data-name="Path 17" d="M392.209,149.793a4.43,4.43,0,0,0,1.447-.81,3.447,3.447,0,0,0,.969-1.447,4.894,4.894,0,0,0,.333-1.838,5.162,5.162,0,0,0-.275-1.678,4.138,4.138,0,0,0-.854-1.375,3.647,3.647,0,0,0-1.447-.926,5.788,5.788,0,0,0-2.026-.318H385.48v14.282h1.65v-5.6h2.547l4.023,5.6h2.04l-4.153-5.788a5.716,5.716,0,0,0,.622-.1Zm-.9-1.447a5.572,5.572,0,0,1-1.375.145h-2.894v-5.383H390.3a3.285,3.285,0,0,1,2.228.666,2.4,2.4,0,0,1,.738,1.982,3.8,3.8,0,0,1-.1.926,2.231,2.231,0,0,1-.347.723,1.967,1.967,0,0,1-.579.564A3.078,3.078,0,0,1,391.311,148.346Z" transform="translate(150.966 39.361)" fill="#fff"/>
    <path id="Path_18" data-name="Path 18" d="M405.137,144.074a3.6,3.6,0,0,0-.825-1.375,3.7,3.7,0,0,0-1.447-.941,6.006,6.006,0,0,0-2.055-.318H395.92v14.282h1.563v-5.6h2.894a8.68,8.68,0,0,0,1.563-.145,5.062,5.062,0,0,0,1.36-.492,3.706,3.706,0,0,0,1.1-.883,3.879,3.879,0,0,0,.709-1.273,5.224,5.224,0,0,0,0-3.256Zm-3.039-.81a2.777,2.777,0,0,1,.9.463,2.114,2.114,0,0,1,.55.781,3.472,3.472,0,0,1,.2,1.23,3.4,3.4,0,0,1-.174,1.114,2.588,2.588,0,0,1-.535.839,2.561,2.561,0,0,1-.984.564,5.456,5.456,0,0,1-1.635.217h-2.894V143.09h3.343a4.08,4.08,0,0,1,1.23.174Z" transform="translate(155.633 39.379)" fill="#fff"/>
    <path id="Path_19" data-name="Path 19" d="M132.953,95.129c5.064,2.272,10.708-.521,13.515-4.934,2.619-4.1,2.445-10.751-2.662-12.473s-11.084,1.187-13.949,5.643a7.915,7.915,0,0,0,3.1,11.764ZM118.8,119.409c4.341,3.27,9.8,1.2,12.372-3.111s3.386-11.692-1.447-14.4c-4.442-2.474-10.52.188-13.211,4.457a9.9,9.9,0,0,0,2.286,13.052Zm-13.428,23.47a8.682,8.682,0,0,0,12.4-2.981c2.633-4.341,2.17-10.65-1.925-13.674s-10.129-.593-12.661,3.574a9.854,9.854,0,0,0,2.185,13.081ZM91.149,166.2c3.516,2.532,8.016,1.447,11.33-3.068,2.894-3.907,3.806-10.4-.362-13.443s-9.724-.391-12.314,3.56C87.474,156.828,87.4,163.4,91.149,166.2Zm14.137-67.763c4.573.969,10-1.447,12.936-6.034s1.259-9.029-3.2-9.594a14.369,14.369,0,0,0-13.139,6.28c-2.648,4.037-.839,8.291,3.4,9.348Zm-12.545,21.7c4.341,1.447,9.536-.695,12.43-5.195,2.735-4.254,1.534-9.434-2.691-10.433a12.415,12.415,0,0,0-12.618,5.455c-2.677,4.037-1.071,8.653,2.88,10.143ZM80.2,142.358c3.936,1.939,9.131,0,11.909-4.341s1.867-9.738-2.17-11.243-9.333.318-12.1,4.616A7.568,7.568,0,0,0,80.2,142.33Zm13.471-58.7c2.518.535,7.235-2.272,9.8-6.338s1.751-7.611-.926-7.886-7.553,2.373-9.912,6.15-1.5,7.524,1.042,8.045ZM82.236,103.492c2.373.781,6.931-1.765,9.463-5.788s1.925-7.872-.593-8.407-7.235,1.823-9.565,5.614S79.863,102.754,82.236,103.492Zm-20.764,1.736c3.4,2.286,8.306.695,10.635-3.039a6.671,6.671,0,0,0-2.619-9.825c-3.646-1.881-7.987-1.2-10.129,2.156a8.147,8.147,0,0,0,2.113,10.708ZM51.01,84.956c3.4,2.286,8.306.695,10.635-3.039a6.656,6.656,0,0,0-2.619-9.825c-3.646-1.881-7.987-1.2-10.129,2.156A8.147,8.147,0,0,0,51.01,84.956Zm20.721,1.968c3.4,2.286,8.306.695,10.635-3.039a6.671,6.671,0,0,0-2.619-9.825c-3.661-1.881-8-1.2-10.129,2.156a8.132,8.132,0,0,0,2.127,10.708Zm-.941,36.508c2.214,1.042,6.613-1.23,9.145-5.3s2.084-8.147-.275-8.942-6.873,1.288-9.217,5.064-1.852,8.132.362,9.174Zm89.93-27.884a9,9,0,0,0,13.023-1.838c3.458-4.7,3.487-11.822-1.143-15.57s-11.272-1.736-14.354,3.126a10.621,10.621,0,0,0,2.489,14.282Zm14.73-22.877a8.986,8.986,0,0,0,13.023-1.823c3.458-4.7,3.487-11.836-1.143-15.57s-11.258-1.736-14.34,3.126a10.606,10.606,0,0,0,2.46,14.267ZM131.057,145.7a9.015,9.015,0,0,0,13.023-1.823c3.458-4.7,3.487-11.836-1.143-15.57s-11.272-1.736-14.354,3.111a10.635,10.635,0,0,0,2.532,14.282Zm14.47-25.438a9.015,9.015,0,0,0,13.023-1.838c3.444-4.7,3.487-11.822-1.158-15.57s-11.258-1.736-14.34,3.126a10.621,10.621,0,0,0,2.5,14.282Zm-29.215,49.386a9,9,0,0,0,13.023-1.823c3.458-4.7,3.487-11.822-1.143-15.57s-11.272-1.736-14.354,3.125A10.621,10.621,0,0,0,116.313,169.649Zm-13.486,23.557a9.029,9.029,0,0,0,13.023-1.823c3.444-4.717,3.487-11.836-1.143-15.57s-11.272-1.751-14.354,3.111A10.635,10.635,0,0,0,102.827,193.206ZM117.832,76.752a14.919,14.919,0,0,0,13.443-6.844c2.894-4.515,1-8.682-3.719-8.783a16.612,16.612,0,0,0-13.645,7.1C111.263,72.266,113.317,76.13,117.832,76.752Zm29.056-5.542a12.589,12.589,0,0,0,13.891-5.455c3.053-4.558,1.751-9.391-3.183-11.127-5.383-1.91-11.446,1.172-14.47,5.788a6.888,6.888,0,0,0,3.762,10.795Z" transform="translate(0)" fill="url(#linear-gradient)"/>
  </g>
</svg>
