<svg xmlns="http://www.w3.org/2000/svg" xmlns:xlink="http://www.w3.org/1999/xlink" width="111.531" height="30.825" viewBox="0 0 111.531 30.825">
  <defs>
    <linearGradient id="linear-gradient" x1="-0.014" y1="0.504" x2="0.984" y2="0.504" gradientUnits="objectBoundingBox">
      <stop offset="0.09" stop-color="#3a86ff"/>
      <stop offset="0.29" stop-color="#8338ec"/>
      <stop offset="0.49" stop-color="#ff016e"/>
      <stop offset="0.7" stop-color="#fb560a"/>
      <stop offset="0.91" stop-color="#ffbe0a"/>
    </linearGradient>
  </defs>
  <g id="Craddock_HorizontalLogo_RGB" transform="translate(-47.741 -53.341)">
    <path id="Path_1" data-name="Path 1" d="M179.146,103.84a3,3,0,0,0-3-3H171.82v9.169h1.629v-3.144h2.075l1.824,3.144h1.887l-1.956-3.386A3.025,3.025,0,0,0,179.146,103.84Zm-5.7-1.377h2.692a1.371,1.371,0,1,1,0,2.742h-2.692Z" transform="translate(-85.065 -32.564)"/>
    <path id="Path_2" data-name="Path 2" d="M240.7,100.84H236.09v9.169h4.594a4.578,4.578,0,0,0,0-9.153Zm-2.971,1.635h2.937a2.943,2.943,0,1,1,0,5.883h-2.937Z" transform="translate(-129.127 -32.564)"/>
    <path id="Path_3" data-name="Path 3" d="M275.888,100.84H271.31v9.169h4.566a4.578,4.578,0,0,0,0-9.153Zm-2.943,1.635h2.908a2.943,2.943,0,1,1,0,5.883h-2.908Z" transform="translate(-153.272 -32.564)"/>
    <path id="Path_4" data-name="Path 4" d="M310.929,100.84a4.578,4.578,0,1,0,4.588,4.578,4.578,4.578,0,0,0-4.588-4.578Zm0,7.527a2.953,2.953,0,1,1,2.637-1.447A2.952,2.952,0,0,1,310.929,108.367Z" transform="translate(-177.301 -32.564)"/>
    <path id="Path_5" data-name="Path 5" d="M348.1,107.472h0a3.04,3.04,0,0,1-.4.333,2.944,2.944,0,1,1,.374-4.512l.5.487,1.151-1.148-.49-.506a4.46,4.46,0,0,0-.465-.4,4.6,4.6,0,0,0-4.44-.594c-.072.031-.145.06-.217.094a4.578,4.578,0,0,0,.953,8.65,4.5,4.5,0,0,0,.943.1,4.55,4.55,0,0,0,2.77-.928,4.315,4.315,0,0,0,.475-.415l.5-.494-1.163-1.167Z" transform="translate(-201.341 -32.543)"/>
    <path id="Path_6" data-name="Path 6" d="M145.546,107.472h0a2.874,2.874,0,0,1-.4.333,2.943,2.943,0,1,1,0-4.833,2.906,2.906,0,0,1,.39.314l.5.487,1.151-1.148-.5-.5a5.206,5.206,0,0,0-.465-.4,4.6,4.6,0,0,0-4.44-.594l-.217.094a4.572,4.572,0,0,0,.962,8.637,4.48,4.48,0,0,0,.943.1,4.55,4.55,0,0,0,2.77-.928,4.979,4.979,0,0,0,.475-.415l.5-.494-1.163-1.167Z" transform="translate(-62.485 -32.543)"/>
    <path id="Path_7" data-name="Path 7" d="M378.287,105.088l4.261-4.248h-2.314l-3.418,3.393V100.84H375.19v9.153h1.626v-3.434l.3-.3,3.742,3.729h2.327Z" transform="translate(-224.489 -32.564)"/>
    <path id="Path_8" data-name="Path 8" d="M204.34,100.84l-4.27,9.169h1.8l1.154-2.481.195-.412a7.145,7.145,0,0,1,3.726.751l1,2.141h1.8l-4.273-9.153Zm1.613,4.883a9.929,9.929,0,0,0-1.968-.252l.924-1.984Z" transform="translate(-104.432 -32.564)"/>
    <path id="Path_9" data-name="Path 9" d="M271.31,144.543h.355v-1.365h1.412v-.358h-1.412V141.8H273.3v-.358H271.31Z" transform="translate(-153.272 -60.398)"/>
    <rect id="Rectangle_2" data-name="Rectangle 2" width="0.358" height="3.103" transform="translate(121.084 81.042)"/>
    <path id="Path_10" data-name="Path 10" d="M288.547,143.855l-1.811-2.415h-.286v3.1h.358v-2.412l1.808,2.412h.289v-3.1h-.358Z" transform="translate(-163.652 -60.398)"/>
    <rect id="Rectangle_3" data-name="Rectangle 3" width="0.358" height="3.103" transform="translate(126.609 81.042)"/>
    <path id="Path_11" data-name="Path 11" d="M304.762,142.933l-.393-.157-.022-.022h-.031a2.676,2.676,0,0,1-.406-.192.421.421,0,0,1-.23-.368.368.368,0,0,1,.047-.182.355.355,0,0,1,.119-.135.764.764,0,0,1,.192-.088.9.9,0,0,1,.563.031,1.126,1.126,0,0,1,.314.186l.1.079.245-.274-.107-.088a1.532,1.532,0,0,0-.428-.239,1.393,1.393,0,0,0-.469-.085,1.019,1.019,0,0,0-.67.217.736.736,0,0,0-.27.579v.107a.8.8,0,0,0,.415.579,3.853,3.853,0,0,0,.484.223,1.275,1.275,0,0,0,.126.05l.119.047.107.047.1.047.085.05.063.047.06.069a.22.22,0,0,1,.031.05.12.12,0,0,0,.025.085.434.434,0,0,1-.041.292.4.4,0,0,1-.132.148.886.886,0,0,1-.214.1,1.1,1.1,0,0,1-.563,0,.842.842,0,0,1-.274-.119.783.783,0,0,1-.211-.195l-.094-.126-.261.27.076.094a1.326,1.326,0,0,0,.509.358,1.491,1.491,0,0,0,.572.116,1.359,1.359,0,0,0,.418-.06.985.985,0,0,0,.314-.176.789.789,0,0,0,.208-.27.807.807,0,0,0,.072-.336.752.752,0,0,0-.094-.38A.971.971,0,0,0,304.762,142.933Z" transform="translate(-175.094 -60.369)"/>
    <path id="Path_12" data-name="Path 12" d="M315.6,142.893H314V141.44h-.358v3.1H314v-1.292h1.6v1.292h.358v-3.1H315.6Z" transform="translate(-182.293 -60.398)"/>
    <rect id="Rectangle_4" data-name="Rectangle 4" width="0.358" height="3.103" transform="translate(135.02 81.042)"/>
    <path id="Path_13" data-name="Path 13" d="M332.857,143.855l-1.811-2.415h-.286v3.1h.358v-2.412l1.808,2.412h.289v-3.1h-.358Z" transform="translate(-194.029 -60.398)"/>
    <path id="Path_14" data-name="Path 14" d="M343.093,142.087a1.045,1.045,0,0,1,.365-.242,1.283,1.283,0,0,1,.472-.088,1.179,1.179,0,0,1,.874.33l.094.091.255-.255-.1-.094a1.572,1.572,0,0,0-1.126-.431,1.633,1.633,0,0,0-.61.113,1.428,1.428,0,0,0-.481.314,1.457,1.457,0,0,0-.314.5,1.8,1.8,0,0,0,0,1.258,1.38,1.38,0,0,0,.8.818,1.572,1.572,0,0,0,.61.116,2.047,2.047,0,0,0,.651-.1,1.471,1.471,0,0,0,.528-.314l.044-.041V142.87h-1.431v.358H344.8v.67a1.38,1.38,0,0,1-.865.255,1.223,1.223,0,0,1-.472-.091,1.082,1.082,0,0,1-.365-.239,1.148,1.148,0,0,1-.236-.377,1.5,1.5,0,0,1,0-.994A1.1,1.1,0,0,1,343.093,142.087Z" transform="translate(-202.017 -60.369)"/>
    <path id="Path_15" data-name="Path 15" d="M362.735,143.737a1.259,1.259,0,0,1-.39.33,1.079,1.079,0,0,1-.509.116,1.428,1.428,0,0,1-.371-.05,1.032,1.032,0,0,1-.314-.148.985.985,0,0,1-.248-.236,1.029,1.029,0,0,1-.163-.314,1.456,1.456,0,0,1-.06-.431,1.67,1.67,0,0,1,.035-.336,1.388,1.388,0,0,1,.1-.292,1.055,1.055,0,0,1,.163-.242.946.946,0,0,1,.22-.186,1.072,1.072,0,0,1,.286-.119,1.4,1.4,0,0,1,.352-.044,1.138,1.138,0,0,1,.487.11,1.166,1.166,0,0,1,.412.336l.085.1.283-.226-.082-.1a1.627,1.627,0,0,0-.358-.333,1.528,1.528,0,0,0-.4-.195,1.7,1.7,0,0,0-.871,0,1.45,1.45,0,0,0-.384.16,1.324,1.324,0,0,0-.3.248,1.424,1.424,0,0,0-.217.314,1.861,1.861,0,0,0-.17.789,1.836,1.836,0,0,0,.076.538,1.442,1.442,0,0,0,.22.44,1.365,1.365,0,0,0,.33.314,1.5,1.5,0,0,0,.418.195,1.794,1.794,0,0,0,.472.063,1.424,1.424,0,0,0,.679-.154,1.664,1.664,0,0,0,.506-.428l.085-.107-.289-.22Z" transform="translate(-214.295 -60.384)"/>
    <path id="Path_16" data-name="Path 16" d="M374.456,141.817a1.494,1.494,0,0,0-.487-.314,1.613,1.613,0,0,0-1.211,0,1.434,1.434,0,0,0-.491.336,1.573,1.573,0,0,0-.314.5,1.62,1.62,0,0,0-.113.6,1.654,1.654,0,0,0,.113.61,1.572,1.572,0,0,0,.314.5,1.443,1.443,0,0,0,.491.34,1.573,1.573,0,0,0,.629.123,1.541,1.541,0,0,0,.588-.113,1.5,1.5,0,0,0,.487-.314,1.424,1.424,0,0,0,.314-.5,1.757,1.757,0,0,0,0-1.258A1.439,1.439,0,0,0,374.456,141.817Zm-1.468,2.276a1.019,1.019,0,0,1-.314-.167,1.382,1.382,0,0,1-.245-.261,1.3,1.3,0,0,1-.157-.333,1.419,1.419,0,0,1-.053-.387,1.288,1.288,0,0,1,.085-.469,1.22,1.22,0,0,1,.239-.384,1.069,1.069,0,0,1,.368-.255,1.217,1.217,0,0,1,.481-.094,1.179,1.179,0,0,1,.821.314,1.11,1.11,0,0,1,.248.38,1.28,1.28,0,0,1,.094.494,1.311,1.311,0,0,1-.094.5,1.082,1.082,0,0,1-.248.38,1.2,1.2,0,0,1-.371.242A1.257,1.257,0,0,1,372.988,144.094Z" transform="translate(-222.193 -60.36)"/>
    <path id="Path_17" data-name="Path 17" d="M386.942,143.223a.962.962,0,0,0,.314-.176.748.748,0,0,0,.211-.314,1.062,1.062,0,0,0,.072-.4,1.121,1.121,0,0,0-.06-.365.9.9,0,0,0-.185-.3.793.793,0,0,0-.314-.2,1.258,1.258,0,0,0-.44-.069h-1.06v3.1h.358v-1.217h.553l.874,1.217h.443l-.9-1.258A1.238,1.238,0,0,0,386.942,143.223Zm-.195-.314a1.21,1.21,0,0,1-.3.031h-.629v-1.17h.707a.714.714,0,0,1,.484.145.522.522,0,0,1,.16.431.824.824,0,0,1-.022.2.484.484,0,0,1-.075.157.427.427,0,0,1-.126.123A.668.668,0,0,1,386.747,142.909Z" transform="translate(-231.544 -60.37)"/>
    <path id="Path_18" data-name="Path 18" d="M397.923,142.012a.783.783,0,0,0-.179-.3.8.8,0,0,0-.314-.2,1.3,1.3,0,0,0-.447-.069H395.92v3.1h.34v-1.217h.629a1.885,1.885,0,0,0,.34-.031,1.1,1.1,0,0,0,.3-.107.8.8,0,0,0,.239-.192.842.842,0,0,0,.154-.277,1.135,1.135,0,0,0,0-.707Zm-.66-.176a.6.6,0,0,1,.2.1.46.46,0,0,1,.12.17.755.755,0,0,1,.044.267.736.736,0,0,1-.038.242.484.484,0,0,1-.33.305,1.185,1.185,0,0,1-.355.047h-.629V141.8H397a.886.886,0,0,1,.267.038Z" transform="translate(-238.701 -60.398)"/>
    <path id="Path_19" data-name="Path 19" d="M66.257,62.421a2.413,2.413,0,0,0,2.937-1.072c.569-.89.531-2.336-.579-2.71a2.764,2.764,0,0,0-3.031,1.226,1.72,1.72,0,0,0,.673,2.556ZM63.182,67.7a1.831,1.831,0,0,0,2.688-.676c.56-.937.736-2.541-.314-3.129a2.308,2.308,0,0,0-2.871.968A2.151,2.151,0,0,0,63.182,67.7Zm-2.918,5.1a1.887,1.887,0,0,0,2.695-.648,2.3,2.3,0,0,0-.418-2.971,2.005,2.005,0,0,0-2.751.777A2.141,2.141,0,0,0,60.264,72.8Zm-3.091,5.069a1.724,1.724,0,0,0,2.462-.667c.629-.849.827-2.261-.079-2.921a1.955,1.955,0,0,0-2.676.774A2.255,2.255,0,0,0,57.173,77.866Zm3.072-14.725a2.806,2.806,0,0,0,2.811-1.311c.638-1,.274-1.962-.695-2.085a3.122,3.122,0,0,0-2.855,1.365,1.261,1.261,0,0,0,.739,2.031Zm-2.726,4.716a2.416,2.416,0,0,0,2.7-1.129c.594-.924.333-2.05-.585-2.267a2.7,2.7,0,0,0-2.742,1.185,1.426,1.426,0,0,0,.626,2.2Zm-2.726,4.827a2.1,2.1,0,0,0,2.588-.943,1.6,1.6,0,0,0-.472-2.443,2.3,2.3,0,0,0-2.629,1,1.644,1.644,0,0,0,.513,2.377ZM57.72,59.928a2.664,2.664,0,0,0,2.129-1.377c.557-.884.38-1.654-.2-1.714a2.842,2.842,0,0,0-2.154,1.336c-.513.821-.327,1.635.226,1.748Zm-2.484,4.311c.516.17,1.506-.384,2.056-1.258s.418-1.711-.129-1.827a2.446,2.446,0,0,0-2.078,1.22C54.579,63.2,54.721,64.078,55.236,64.239Zm-4.512.377a1.7,1.7,0,0,0,2.311-.66,1.45,1.45,0,0,0-.569-2.135,1.65,1.65,0,0,0-2.2.469A1.77,1.77,0,0,0,50.724,64.616Zm-2.273-4.405a1.7,1.7,0,0,0,2.311-.66,1.446,1.446,0,0,0-.569-2.135,1.65,1.65,0,0,0-2.2.469A1.77,1.77,0,0,0,48.451,60.211Zm4.5.428a1.7,1.7,0,0,0,2.311-.66,1.45,1.45,0,0,0-.569-2.135,1.648,1.648,0,0,0-2.2.468,1.767,1.767,0,0,0,.462,2.327Zm-.2,7.933c.481.226,1.437-.267,1.987-1.151s.453-1.77-.06-1.943a2.118,2.118,0,0,0-2,1.1c-.509.821-.4,1.767.079,1.993Zm19.542-6.059a1.956,1.956,0,0,0,2.83-.4,2.5,2.5,0,0,0-.248-3.383,2.144,2.144,0,0,0-3.119.679,2.308,2.308,0,0,0,.541,3.1Zm3.2-4.971a1.953,1.953,0,0,0,2.83-.4,2.5,2.5,0,0,0-.248-3.383,2.143,2.143,0,0,0-3.116.679A2.3,2.3,0,0,0,75.492,57.541ZM65.845,73.411a1.959,1.959,0,0,0,2.83-.4,2.5,2.5,0,0,0-.248-3.383,2.148,2.148,0,0,0-3.119.676,2.311,2.311,0,0,0,.55,3.1Zm3.144-5.528a1.959,1.959,0,0,0,2.83-.4,2.5,2.5,0,0,0-.252-3.383,2.14,2.14,0,0,0-3.116.679,2.308,2.308,0,0,0,.544,3.1ZM62.641,78.614a1.956,1.956,0,0,0,2.83-.4,2.5,2.5,0,0,0-.248-3.383,2.144,2.144,0,0,0-3.119.679A2.308,2.308,0,0,0,62.641,78.614Zm-2.93,5.119a1.962,1.962,0,0,0,2.83-.4,2.5,2.5,0,0,0-.248-3.383,2.146,2.146,0,0,0-3.119.676,2.311,2.311,0,0,0,.538,3.1Zm3.261-25.305a3.242,3.242,0,0,0,2.921-1.487c.629-.981.217-1.887-.808-1.909a3.61,3.61,0,0,0-2.965,1.544A1.127,1.127,0,0,0,62.971,58.428Zm6.314-1.2A2.736,2.736,0,0,0,72.3,56.038a1.491,1.491,0,0,0-.692-2.418,2.819,2.819,0,0,0-3.144,1.258,1.5,1.5,0,0,0,.818,2.346Z" fill="url(#linear-gradient)"/>
  </g>
</svg>
