<svg xmlns="http://www.w3.org/2000/svg" viewBox="0 0 41.089 47.852"><g transform="translate(-152.171 -138.952)"><path d="M184.805,150.982l-5.487.859a.416.416,0,0,0-.331.539l2.351,7.236a.416.416,0,0,0,.479.279l3.206-.657a.416.416,0,0,0,.332-.411l-.07-7.437A.416.416,0,0,0,184.805,150.982Z" transform="translate(-17.909 -8.037)" fill="#2eb1c9"></path><path d="M191.235,189.644c.088-.015.177-.03.266-.042a.416.416,0,0,0,.363-.413l-.067-7.148a.415.415,0,0,0-.5-.4l-2.4.492a.416.416,0,0,0-.312.536l2.178,6.7A.416.416,0,0,0,191.235,189.644Z" transform="translate(-24.325 -28.523)" fill="#6acbe1"></path><path d="M154.9,235.579l.051,2.2a.415.415,0,0,0,.549.384l1.543-.523a.416.416,0,0,0,.271-.492l-.409-1.682a.416.416,0,0,0-.406-.318l-1.185.008A.415.415,0,0,0,154.9,235.579Z" transform="translate(-1.822 -64.292)" fill="#a5cd39"></path><path d="M169.4,235.705q-.024-.139-.044-.278a.415.415,0,0,0-.412-.363l-1.763.011a.416.416,0,0,0-.4.514l.2.836a.416.416,0,0,0,.537.3l1.608-.545A.415.415,0,0,0,169.4,235.705Z" transform="translate(-9.755 -64.236)" fill="#c8d92b"></path><path d="M166.113,246.4l2.611-1.9a.415.415,0,0,0,.118-.533q-.064-.122-.125-.247a.416.416,0,0,0-.5-.219l-3.344,1.087a.415.415,0,0,0-.2.656l.868,1.078A.415.415,0,0,0,166.113,246.4Z" transform="translate(-8.297 -69.861)" fill="#a5cd39"></path><path d="M153.407,223.053h5.935a.415.415,0,0,0,.409-.363c.013-.092.028-.183.043-.274a.415.415,0,0,0-.277-.471l-6.574-2.135a.416.416,0,0,0-.532.493l.592,2.432A.415.415,0,0,0,153.407,223.053Z" transform="translate(-0.153 -54.027)" fill="#2eb1c9"></path><path d="M153.523,204.174l-1.3,2.464a.416.416,0,0,0,.239.59l7.461,2.424a.416.416,0,0,0,.5-.219c.041-.085.084-.168.127-.25a.415.415,0,0,0-.117-.532l-6.3-4.618A.416.416,0,0,0,153.523,204.174Z" transform="translate(0 -43.443)" fill="#6acbe1"></path><path d="M173.86,204.2q.1-.1.2-.2a.415.415,0,0,0,.052-.544l-2.719-3.742a.416.416,0,0,0-.711.065l-.763,1.591a.416.416,0,0,0,.131.516l3.268,2.365A.415.415,0,0,0,173.86,204.2Z" transform="translate(-11.834 -40.499)" fill="#6acbe1"></path><path d="M158.6,181.648l-.142,4.918a.415.415,0,0,0,.171.349l1.585,1.147a.416.416,0,0,0,.619-.157l1.178-2.457a.415.415,0,0,0-.038-.424l-2.621-3.608A.416.416,0,0,0,158.6,181.648Z" transform="translate(-4.199 -28.266)" fill="#2eb1c9"></path><path d="M258.139,189.781l-.037-6.6a.416.416,0,0,0-.659-.334l-8.026,5.806a.415.415,0,0,0-.146.483l1.156,3.082a.416.416,0,0,0,.52.248l6.908-2.293A.416.416,0,0,0,258.139,189.781Z" transform="translate(-64.879 -29.287)" fill="#f26e24"></path><path d="M224.959,210.012q.063.119.123.241a.416.416,0,0,0,.5.218l6.553-2.175a.415.415,0,0,0,.258-.541l-.862-2.3a.415.415,0,0,0-.632-.191l-5.824,4.213A.415.415,0,0,0,224.959,210.012Z" transform="translate(-48.614 -44.268)" fill="#f5874c"></path><path d="M243.069,218.267l-.831-4.64a.416.416,0,0,0-.534-.323l-13.648,4.3a.416.416,0,0,0-.281.472c.016.089.03.179.042.269a.416.416,0,0,0,.408.363l14.433.048A.416.416,0,0,0,243.069,218.267Z" transform="translate(-50.526 -49.68)" fill="#ffc10e"></path><path d="M204.981,162.159l6.738-20.7a.416.416,0,0,0-.516-.526l-7.073,2.15a.415.415,0,0,0-.295.4l.037,18.5a.415.415,0,0,0,.363.409c.092.013.184.028.275.043A.415.415,0,0,0,204.981,162.159Z" transform="translate(-34.53 -1.315)" fill="#f5874c"></path><path d="M220.482,177.015,236,165.647a.415.415,0,0,0,.125-.523l-3.088-6.1a.415.415,0,0,0-.706-.058l-12.64,17.26a.415.415,0,0,0,.051.545c.065.063.129.127.192.192A.416.416,0,0,0,220.482,177.015Z" transform="translate(-45.075 -13.263)" fill="#f5874c"></path><path d="M239.57,139.264l-7.784-.311a.416.416,0,0,0-.409.277l-2.264,6.443a.416.416,0,0,0,.231.521l4.462,1.874a.416.416,0,0,0,.5-.146l5.586-8.005A.416.416,0,0,0,239.57,139.264Z" transform="translate(-51.409)" fill="#f26e24"></path><path d="M213.428,179.976l8.181-11.725a.416.416,0,0,0-.18-.621l-3.783-1.589a.415.415,0,0,0-.553.245l-4.635,13.193a.416.416,0,0,0,.215.511c.073.036.145.072.217.11A.415.415,0,0,0,213.428,179.976Z" transform="translate(-40.277 -18.083)" fill="#f5874c"></path><path d="M171.274,179.793,166.9,166.759a.415.415,0,0,0-.563-.247l-4.116,1.839a.415.415,0,0,0-.167.624l8.23,11.328a.415.415,0,0,0,.533.118q.119-.063.24-.122A.416.416,0,0,0,171.274,179.793Z" transform="translate(-6.552 -18.395)" fill="#6acbe1"></path><path d="M219.934,250.835q-.1.1-.2.2a.415.415,0,0,0-.052.544l2.074,2.854a.415.415,0,0,0,.554.11l1.278-.787a.416.416,0,0,0,.027-.69l-3.14-2.281A.415.415,0,0,0,219.934,250.835Z" transform="translate(-45.071 -74.689)" fill="#ffc10e"></path><path d="M232.137,266.1l3.085-1.125a.415.415,0,0,0,.1-.726l-2-1.456a.416.416,0,0,0-.462-.018l-2.043,1.257a.415.415,0,0,0-.118.6l.961,1.323A.416.416,0,0,0,232.137,266.1Z" transform="translate(-52.43 -82.714)" fill="#f89c1c"></path><path d="M232.467,249.358l2.5-2.087a.415.415,0,0,0-.136-.713l-9.235-3.047a.416.416,0,0,0-.5.219q-.058.119-.12.236a.416.416,0,0,0,.122.536l6.867,4.878A.416.416,0,0,0,232.467,249.358Z" transform="translate(-48.622 -69.868)" fill="#ffc10e"></path><path d="M212.379,256.681l2.45,7.834a.415.415,0,0,0,.678.182c.585-.544,1.37-1.289,2.149-2.037a.415.415,0,0,0,.048-.544l-4.318-5.943a.415.415,0,0,0-.533-.119c-.084.044-.169.088-.255.13A.416.416,0,0,0,212.379,256.681Z" transform="translate(-40.228 -78.232)" fill="#ffc10e"></path><path d="M254.4,239.294l2.7-3.476a.415.415,0,0,0-.327-.671L253,235.136a.415.415,0,0,0-.378.241l-1.266,2.744a.415.415,0,0,0,.252.57l2.34.744A.415.415,0,0,0,254.4,239.294Z" transform="translate(-66.266 -64.285)" fill="#f89c1c"></path><path d="M227.816,235.418q-.019.133-.042.266a.416.416,0,0,0,.28.472l5.242,1.665a.415.415,0,0,0,.5-.222l.893-1.936a.415.415,0,0,0-.376-.589l-6.09-.018A.416.416,0,0,0,227.816,235.418Z" transform="translate(-50.525 -64.23)" fill="#ffc10e"></path><path d="M181.853,259.851l1.026-3.156a.416.416,0,0,0-.219-.5c-.079-.039-.158-.079-.236-.12a.416.416,0,0,0-.537.124l-2.485,3.541a.416.416,0,0,0,.4.65l1.716-.255A.416.416,0,0,0,181.853,259.851Z" transform="translate(-18.148 -78.245)" fill="#a5cd39"></path><path d="M171.663,253.182l.438,1.514a.415.415,0,0,0,.731.134l2.447-3.258a.415.415,0,0,0-.048-.549q-.1-.093-.188-.188a.415.415,0,0,0-.544-.053l-2.681,1.948A.416.416,0,0,0,171.663,253.182Z" transform="translate(-13.017 -74.69)" fill="#c8d92b"></path><path d="M191.345,259.138l-1.878,5.581a.416.416,0,0,0,.469.541l2.286-.42a.416.416,0,0,0,.341-.416l-.09-5.112a.416.416,0,0,0-.363-.4q-.148-.02-.295-.046A.415.415,0,0,0,191.345,259.138Z" transform="translate(-24.912 -80.139)" fill="#c8d92b"></path><path d="M204.02,274.378l.008,2.121a.416.416,0,0,0,.4.414l2.606.124a.416.416,0,0,0,.415-.543l-.684-1.791a.844.844,0,0,0-.681-.536l-1.592-.2A.416.416,0,0,0,204.02,274.378Z" transform="translate(-34.653 -90.233)" fill="#a5cd39"></path><path d="M204.593,258.87c-.089.015-.179.03-.269.042a.416.416,0,0,0-.363.411l.009,2.264a.416.416,0,0,0,.363.411l1.073.137a.415.415,0,0,0,.448-.54l-.79-2.446A.415.415,0,0,0,204.593,258.87Z" fill="#c8d92b"></path></g></svg>